<?xml version="1.0" encoding="utf-8"?>
<!-- Generator: Adobe Illustrator 15.1.0, SVG Export Plug-In . SVG Version: 6.00 Build 0)  -->
<!DOCTYPE svg PUBLIC "-//W3C//DTD SVG 1.1//EN" "http://www.w3.org/Graphics/SVG/1.1/DTD/svg11.dtd">
<svg version="1.1" id="Ebene_1" xmlns="http://www.w3.org/2000/svg" xmlns:xlink="http://www.w3.org/1999/xlink" x="0px" y="0px"
	 width="958px" height="307px" viewBox="149.295 122.964 958 307" enable-background="new 149.295 122.964 958 307"
	 xml:space="preserve">
<g>
	<g>
		<defs>
			<rect id="SVGID_1_" x="-8" y="-10" width="1275.591" height="566.929"/>
		</defs>
		<clipPath id="SVGID_2_">
			<use xlink:href="#SVGID_1_"  overflow="visible"/>
		</clipPath>
		<path clip-path="url(#SVGID_2_)" fill="#FFFFFF" d="M853.666,398.433h3.382c1.396,0,2.403,0.329,3.018,0.986
			c0.601,0.658,0.907,1.498,0.907,2.52v12.104c0,1.17-0.261,2.133-0.771,2.895c-0.521,0.762-1.577,1.135-3.152,1.135
			c-1.59,0-2.633-0.373-3.154-1.135s-0.771-1.725-0.771-2.895v-6.625h-6.941v6.625c0,1.363,0.146,2.621,0.453,3.768
			s0.861,2.135,1.688,2.975c0.818,0.828,1.931,1.473,3.337,1.938c1.396,0.453,3.199,0.682,5.39,0.682
			c2.189,0,4.004-0.229,5.434-0.682c1.43-0.465,2.564-1.109,3.382-1.938c0.827-0.84,1.396-1.828,1.734-2.975
			c0.329-1.145,0.5-2.404,0.5-3.768v-11.648c0-3.348-1.611-5.604-4.833-6.771c1.576-0.568,2.724-1.418,3.426-2.554
			c0.692-1.146,1.044-2.554,1.044-4.231v-11.266c0-1.316-0.17-2.52-0.499-3.619c-0.341-1.088-0.896-2.041-1.689-2.847
			c-0.794-0.817-1.896-1.44-3.29-1.872c-1.407-0.434-3.143-0.646-5.207-0.646c-2.133,0-3.88,0.215-5.253,0.646
			s-2.45,1.055-3.244,1.872c-0.795,0.806-1.361,1.759-1.69,2.847c-0.341,1.101-0.499,2.303-0.499,3.619v6.24h6.942v-6.24
			c0-1.01,0.271-1.871,0.816-2.586c0.557-0.715,1.521-1.066,2.928-1.066c1.396,0,2.371,0.353,2.927,1.066
			c0.544,0.715,0.816,1.576,0.816,2.586v11.879c0,1.021-0.272,1.848-0.816,2.518c-0.556,0.658-1.531,0.988-2.927,0.988h-3.381v5.477
			H853.666z M805.156,422.642c0-3.9,0.046-7.406,0.138-10.506c0.09-3.098,0.237-5.942,0.452-8.529
			c0.217-2.587,0.512-5.025,0.874-7.307c0.363-2.279,0.816-4.571,1.372-6.852c0.545-2.281,1.215-4.662,2.01-7.16
			c0.781-2.483,1.735-5.218,2.823-8.224v-4.722h-21.373v5.72h14.612c-1.634,3.901-3.007,7.748-4.107,11.524
			c-1.101,3.789-1.995,7.603-2.688,11.459c-0.703,3.856-1.191,7.816-1.464,11.877c-0.271,4.063-0.419,8.305-0.419,12.719H805.156
			L805.156,422.642z M742.309,402.234c0-1.156,0.283-2.121,0.862-2.895c0.577-0.76,1.655-1.135,3.243-1.135
			c1.577,0,2.666,0.375,3.244,1.135c0.579,0.772,0.862,1.736,0.862,2.895v11.809c0,1.17-0.283,2.133-0.862,2.895
			c-0.578,0.762-1.667,1.135-3.244,1.135c-1.588,0-2.666-0.373-3.243-1.135c-0.579-0.762-0.862-1.725-0.862-2.895V402.234z
			 M735.173,414.042c0,1.361,0.17,2.621,0.511,3.768c0.328,1.146,0.94,2.133,1.826,2.973c0.885,0.828,2.042,1.475,3.472,1.938
			c1.429,0.455,3.244,0.684,5.434,0.684c2.19,0,4.006-0.229,5.436-0.684c1.429-0.465,2.586-1.109,3.471-1.938
			c0.885-0.84,1.498-1.826,1.827-2.973c0.341-1.146,0.499-2.404,0.499-3.768v-11.649c0-1.681-0.442-3.087-1.315-4.231
			c-0.886-1.135-2.121-1.986-3.698-2.541c3.097-1.123,4.65-3.381,4.65-6.785v-11.265c0-1.315-0.17-2.521-0.499-3.618
			c-0.341-1.09-0.931-2.043-1.78-2.848c-0.852-0.816-1.985-1.441-3.382-1.872c-1.405-0.433-3.143-0.647-5.206-0.647
			c-2.134,0-3.881,0.215-5.253,0.647c-1.372,0.431-2.474,1.056-3.289,1.872c-0.828,0.805-1.407,1.758-1.736,2.848
			c-0.34,1.1-0.499,2.303-0.499,3.618v11.265c0,1.68,0.363,3.086,1.089,4.232c0.737,1.135,1.895,1.984,3.471,2.553
			c-1.576,0.555-2.813,1.406-3.696,2.541c-0.886,1.146-1.327,2.553-1.327,4.231v11.649H735.173z M742.58,377.571
			c0-1.01,0.282-1.872,0.861-2.586c0.579-0.715,1.566-1.067,2.973-1.067c1.396,0,2.405,0.354,3.019,1.067
			c0.602,0.714,0.907,1.576,0.907,2.586v12.024c0,1.021-0.307,1.871-0.907,2.554c-0.612,0.69-1.622,1.031-3.019,1.031
			c-1.405,0-2.394-0.341-2.973-1.031c-0.579-0.683-0.861-1.53-0.861-2.554V377.571z M696.261,369.345h-5.843
			c0,1.271-0.521,2.429-1.556,3.473c-1.043,1.044-2.802,1.555-5.297,1.555v4.117h5.57v38.447h-5.57v5.705h18.265v-5.705h-5.569
			V369.345z M586.173,369.345h-6.853v53.297h6.853v-17.438c0-3.799-0.08-7.351-0.228-10.651c-0.146-3.302-0.317-6.75-0.499-10.357
			l12.241,38.446h6.854v-53.297h-6.854v17.438c0,3.711,0.056,7.215,0.181,10.506c0.125,3.301,0.307,6.805,0.545,10.504
			L586.173,369.345z M533,398.433h10.052v-5.479H533v-17.892h11.605v-5.719h-18.73v53.298h18.73v-5.707H533V398.433z
			 M480.384,422.642h7.125v-53.297h-7.125V422.642z M432.238,422.642h8.497l7.669-53.297h-7.215l-4.844,42.338l-6.115-42.338h-7.499
			l-6.205,42.338l-4.753-42.338h-7.216l7.669,53.297h8.497l5.764-41.645L432.238,422.642z"/>
	</g>
	<g>
		<defs>
			<rect id="SVGID_3_" x="-8" y="-10" width="1275.591" height="566.929"/>
		</defs>
		<clipPath id="SVGID_4_">
			<use xlink:href="#SVGID_3_"  overflow="visible"/>
		</clipPath>
		<path clip-path="url(#SVGID_4_)" fill="none" stroke="#FFFFFF" stroke-miterlimit="10" d="M853.666,398.433h3.382
			c1.396,0,2.403,0.329,3.018,0.986c0.601,0.658,0.907,1.498,0.907,2.52v12.104c0,1.17-0.261,2.133-0.771,2.895
			c-0.521,0.762-1.577,1.135-3.152,1.135c-1.59,0-2.633-0.373-3.154-1.135s-0.771-1.725-0.771-2.895v-6.625h-6.941v6.625
			c0,1.363,0.146,2.621,0.453,3.768s0.861,2.135,1.688,2.975c0.818,0.828,1.931,1.473,3.337,1.938
			c1.396,0.453,3.199,0.682,5.39,0.682c2.189,0,4.004-0.229,5.434-0.682c1.43-0.465,2.564-1.109,3.382-1.938
			c0.827-0.84,1.396-1.828,1.734-2.975c0.329-1.145,0.5-2.404,0.5-3.768v-11.648c0-3.348-1.611-5.604-4.833-6.771
			c1.576-0.568,2.724-1.418,3.426-2.554c0.692-1.146,1.044-2.554,1.044-4.231v-11.266c0-1.316-0.17-2.52-0.499-3.619
			c-0.341-1.088-0.896-2.041-1.689-2.847c-0.794-0.817-1.896-1.44-3.29-1.872c-1.407-0.434-3.143-0.646-5.207-0.646
			c-2.133,0-3.88,0.215-5.253,0.646s-2.45,1.055-3.244,1.872c-0.795,0.806-1.361,1.759-1.69,2.847
			c-0.341,1.101-0.499,2.303-0.499,3.619v6.24h6.942v-6.24c0-1.01,0.271-1.871,0.816-2.586c0.557-0.715,1.521-1.066,2.928-1.066
			c1.396,0,2.371,0.353,2.927,1.066c0.544,0.715,0.816,1.576,0.816,2.586v11.879c0,1.021-0.272,1.848-0.816,2.518
			c-0.556,0.658-1.531,0.988-2.927,0.988h-3.381v5.477H853.666z M805.156,422.642c0-3.9,0.046-7.406,0.138-10.506
			c0.09-3.098,0.237-5.942,0.452-8.529c0.217-2.587,0.512-5.025,0.874-7.307c0.363-2.279,0.816-4.571,1.372-6.852
			c0.545-2.281,1.215-4.662,2.01-7.16c0.781-2.483,1.735-5.218,2.823-8.224v-4.722h-21.373v5.72h14.612
			c-1.634,3.901-3.007,7.748-4.107,11.524c-1.101,3.789-1.995,7.603-2.688,11.459c-0.703,3.856-1.191,7.816-1.464,11.877
			c-0.271,4.063-0.419,8.305-0.419,12.719H805.156L805.156,422.642z M742.309,402.234c0-1.156,0.283-2.121,0.862-2.895
			c0.577-0.76,1.655-1.135,3.243-1.135c1.577,0,2.666,0.375,3.244,1.135c0.579,0.772,0.862,1.736,0.862,2.895v11.809
			c0,1.17-0.283,2.133-0.862,2.895c-0.578,0.762-1.667,1.135-3.244,1.135c-1.588,0-2.666-0.373-3.243-1.135
			c-0.579-0.762-0.862-1.725-0.862-2.895V402.234z M735.173,414.042c0,1.361,0.17,2.621,0.511,3.768
			c0.328,1.146,0.94,2.133,1.826,2.973c0.885,0.828,2.042,1.475,3.472,1.938c1.429,0.455,3.244,0.684,5.434,0.684
			c2.19,0,4.006-0.229,5.436-0.684c1.429-0.465,2.586-1.109,3.471-1.938c0.885-0.84,1.498-1.826,1.827-2.973
			c0.341-1.146,0.499-2.404,0.499-3.768v-11.649c0-1.681-0.442-3.087-1.315-4.231c-0.886-1.135-2.121-1.986-3.698-2.541
			c3.097-1.123,4.65-3.381,4.65-6.785v-11.265c0-1.315-0.17-2.521-0.499-3.618c-0.341-1.09-0.931-2.043-1.78-2.848
			c-0.852-0.816-1.985-1.441-3.382-1.872c-1.405-0.433-3.143-0.647-5.206-0.647c-2.134,0-3.881,0.215-5.253,0.647
			c-1.372,0.431-2.474,1.056-3.289,1.872c-0.828,0.805-1.407,1.758-1.736,2.848c-0.34,1.1-0.499,2.303-0.499,3.618v11.265
			c0,1.68,0.363,3.086,1.089,4.232c0.737,1.135,1.895,1.984,3.471,2.553c-1.576,0.555-2.813,1.406-3.696,2.541
			c-0.886,1.146-1.327,2.553-1.327,4.231v11.649H735.173z M742.58,377.571c0-1.01,0.282-1.872,0.861-2.586
			c0.579-0.715,1.566-1.067,2.973-1.067c1.396,0,2.405,0.354,3.019,1.067c0.602,0.714,0.907,1.576,0.907,2.586v12.024
			c0,1.021-0.307,1.871-0.907,2.554c-0.612,0.69-1.622,1.031-3.019,1.031c-1.405,0-2.394-0.341-2.973-1.031
			c-0.579-0.683-0.861-1.53-0.861-2.554V377.571z M696.261,369.345h-5.843c0,1.271-0.521,2.429-1.556,3.473
			c-1.043,1.044-2.802,1.555-5.297,1.555v4.117h5.57v38.447h-5.57v5.705h18.265v-5.705h-5.569V369.345z M586.173,369.345h-6.853
			v53.297h6.853v-17.438c0-3.799-0.08-7.351-0.228-10.651c-0.146-3.302-0.317-6.75-0.499-10.357l12.241,38.446h6.854v-53.297h-6.854
			v17.438c0,3.711,0.056,7.215,0.181,10.506c0.125,3.301,0.307,6.805,0.545,10.504L586.173,369.345z M533,398.433h10.052v-5.479H533
			v-17.892h11.605v-5.719h-18.73v53.298h18.73v-5.707H533V398.433z M480.384,422.642h7.125v-53.297h-7.125V422.642z
			 M432.238,422.642h8.497l7.669-53.297h-7.215l-4.844,42.338l-6.115-42.338h-7.499l-6.205,42.338l-4.753-42.338h-7.216
			l7.669,53.297h8.497l5.764-41.645L432.238,422.642z"/>
	</g>
	<g>
		<defs>
			<rect id="SVGID_5_" x="-8" y="-10" width="1275.591" height="566.929"/>
		</defs>
		<clipPath id="SVGID_6_">
			<use xlink:href="#SVGID_5_"  overflow="visible"/>
		</clipPath>
		<path clip-path="url(#SVGID_6_)" fill="#FFFFFF" d="M596.871,191.869c0.961-0.259,1.959-0.434,2.876-0.806
			c2.313-0.944,2.816-2.81,1.416-4.953c-2.276-3.499-4.568-6.981-6.815-10.501c-0.638-1.002-1.133-2.053-2.595-1.843
			c-1.167,0.166-2.426,0.02-3.493,0.428c-1.252,0.457-2.37,1.327-3.477,2.119c-0.341,0.239-0.632,0.786-0.667,1.217
			C583.607,184.358,590.105,191.593,596.871,191.869"/>
	</g>
	<g>
		<defs>
			<rect id="SVGID_7_" x="-8" y="-10" width="1275.591" height="566.929"/>
		</defs>
		<clipPath id="SVGID_8_">
			<use xlink:href="#SVGID_7_"  overflow="visible"/>
		</clipPath>
		<path clip-path="url(#SVGID_8_)" fill="none" stroke="#FFFFFF" stroke-miterlimit="10" d="M596.871,191.869
			c0.961-0.259,1.959-0.434,2.876-0.806c2.313-0.944,2.816-2.81,1.416-4.953c-2.276-3.499-4.568-6.981-6.815-10.501
			c-0.638-1.002-1.133-2.053-2.595-1.843c-1.167,0.166-2.426,0.02-3.493,0.428c-1.252,0.457-2.37,1.327-3.477,2.119
			c-0.341,0.239-0.632,0.786-0.667,1.217C583.607,184.358,590.105,191.593,596.871,191.869z"/>
	</g>
	<g>
		<defs>
			<rect id="SVGID_9_" x="-8" y="-10" width="1275.591" height="566.929"/>
		</defs>
		<clipPath id="SVGID_10_">
			<use xlink:href="#SVGID_9_"  overflow="visible"/>
		</clipPath>
		<path clip-path="url(#SVGID_10_)" fill="#FFFFFF" d="M756.433,135.507c-7.837,0.725-11.806,5.491-18.22,10.88
			c-6.413,5.389-17.1,19.169-22.086,26.319c-4.987,7.148-16.286,26.835-19.135,31.811c-2.851,4.972-8.959,16.574-11.197,20.097
			c-2.241,3.526-14.044,12.54-20.152,15.961c-6.105,3.418-12.417,7.977-14.688,8.495c-2.269,0.519-3.227-0.311-2.514-3.834
			c0.714-3.523,3.942-8.219,5.905-13.573c1.962-5.354-3.564-4.973-6.348-5.73c-2.783-0.76-2.103-2.871-5.055-5.255
			c-2.948-2.384-8.144-1.555-10.073,2.073c-1.937,3.628,1.08,5.96,4.066,7.151c2.99,1.19,4.889,2.069,3.666,4.765
			c-1.22,2.694-8.039,10.674-13.539,13.469c-5.493,2.798-8.547,2.902-10.276,0.206c-1.729-2.69,0.102-7.043,2.137-11.086
			c2.036-4.039,10.685-8.185,11.093-11.087c0.41-2.9-1.2-2.845-4.273-3.107c-3.074-0.264-9.363,1.45-13.943,3.317
			c-4.58,1.863-11.299,5.697-16.287,9.01c-4.984,3.32-9.363,5.806-14.758,9.119c-5.393,3.319-7.124,4.251-9.069,3.267
			c-1.944-0.984-1.921-1.604-0.163-5.844c1.76-4.238,1.194-4.675,3.738-9.75c2.542-5.077,8.956-14.612,9.463-16.685
			c0.512-2.071-0.914-2.586-3.663-1.552c-2.748,1.036-10.077,5.389-15.354,8.728c-5.284,3.337-14.467,9.299-18.741,12.097
			s-15.813,10.19-20.866,13.023c-5.055,2.833-7.669,2.175-8.176,1.761c-0.509-0.416-0.576-0.794,1.221-6.492
			c1.799-5.7,5.633-7.875,6.582-8.461c0.949-0.588,1.255-1.659,2.411-3.49c1.15-1.832,0.302-2.452-0.717-3.313
			c-1.017-0.868-3.359-1.325-4.299-2.516c-0.938-1.191-0.315-1.54,0.901-3.069c1.217-1.534,1.061-2.879-0.57-4.434
			c-1.628-1.555-4.375-1.45-7.125,0.725c-2.744,2.175-4.172,6.111-8.649,8.912c-4.481,2.795-11.401,7.974-16.185,11.294
			c-4.786,3.316-10.28,7.147-18.016,10.877c-7.736,3.732-13.943,2.594-14.555,1.554c-0.611-1.036-1.732-1.968,4.376-6.009
			c6.104-4.038,15.37-12.534,17.713-18.441c2.338-5.904,1.424-8.248-0.103-9.908c-1.527-1.653-4.578,0-10.894,3.171
			c-5.8,2.914-14.307,10.679-19.484,17.675c-4.736,1.319-22.013,10.022-25.689,11.76c-4.373,2.073-7.325,3.522-5.799,0.827
			c1.527-2.691,6.017-12.767,7.327-19.166c1.311-6.4-0.203-9.119-7.692-7.081c-7.488,2.038-17.247,11.116-20.412,13.354
			c-3.161,2.24-4.262-0.783-3.552-4.617c0.714-3.831,1.834-6.528-1.219-11.087c-3.056-4.556-8.956-2.072-15.389,3.852
			c-6.428,5.922-12.807,11.125-20.54,15.94c-7.734,4.816-9.13,6.21-13.139,7.494c-4.009,1.287-5.154-0.87-2.038-6.888
			c3.118-6.021,7.267-11.701,7.087-16.822c-0.184-5.124-6.944-4.411-11.017-2.65c-4.071,1.762-15.064,10.05-21.016,16.462
			c-5.947,6.405-9.329,6.792-9.907,7.06c-0.579,0.268-0.696-0.69-0.355-2.108c0.335-1.415,4.088-10.42,5.82-15.55
			c1.731-5.133,0.929-10.63-6.909-6.487c-7.838,4.149-25.161,18.226-27.892,20.223c-2.731,1.997-3.659,3.817-4.984,2.678
			c-1.322-1.141-0.364-2.975,4.577-13.526c4.943-10.554-0.708-9.791-3.354-11.343c-2.646-1.555-9.058,1.552-14.321,6.009
			c-5.262,4.455-25.288,16.362-30.929,19.289c-5.642,2.923-10.956,5.319-18.949,10.012c-7.995,4.693-12.127,6.676-13.979,7.349
			c-1.852,0.675,3.552-4.438,12.569-14.523c14.355-16.051,23.215-28.681,35.685-55.076c12.467-26.392,22.424-42.274,27.988-48.044
			c5.563-5.768,12.691-8.702,14.283-13.399c1.596-4.696-3.898-4.009-8.89-2.591c-4.986,1.415-12.041,7.011-14.282,11.949
			c-2.236,4.94-2.573,4.6-6.886,5.771c-3.188,0.865-11.325,3.377-15.967,4.717c-6.221,1.796-16.199,4.903-25.102,7.456
			c-10.705,3.072-20.684,6.295-25.036,9.151c-4.128,2.71-8.455,6.099-11.911,11.226c-3.525,5.223-4.157,11.867-2.122,16.15
			c2.035,4.28,5.939,8.857,14.031,8.857c8.09,0,11.22-3.436,12.417-5.026c1.192-1.589,1.476-3.365-0.05-4.198
			c-1.529-0.827-3.716,2.076-6.467,2.489c-2.745,0.417-5.343-1.712-6.426-4.364c-1.083-2.658-3.394-6.361-0.238-13.355
			c3.162-6.996,15.268-11.447,22.518-13.73c7.249-2.286,17.279-3.936,25.082-7.357c7.799-3.427,14.895-6.111,19.271-7.975
			c-1.424,1.969-4.579,4.662-8.042,9.637c-3.461,4.973-10.009,14.848-15.703,27.088c-5.695,12.24-6.383,16.359-15.679,33.351
			c-9.297,16.994-27.752,38.338-31.924,41.965c-4.175,3.628-10.688,4.804-20.392,10.226c-9.704,5.42-10.702,8.967-10.449,11.5
			c0.352,3.531,4.682,7.252,15.268,3.593c10.583-3.66,18.931-17.201,21.103-18.787c2.172-1.59,39.424-20.657,42.038-22.384
			c2.611-1.726,14.79-7.525,18.045-9.979c3.258-2.454,10.35-7.115,14.185-6.53c3.831,0.588,1.286,4.216,0.302,6.53
			c-0.98,2.312-6.229,13.719-7.392,17.023c-0.777,2.207-2.553,6.158,0.399,6.914c2.951,0.764,13.206-4.148,19.518-11.595
			c6.315-7.445,17.501-15.14,21.202-15.783c3.696-0.641,2.716,1.368,0.972,5.06c-1.741,3.694-9.151,16.928-8.437,20.24
			c0.713,3.316,5.699,4.457,13.334-0.824c7.631-5.287,13.741-13.783,17.809-17.722c4.071-3.936,6.143-5.354,10.281-7.517
			c4.14-2.157,7.226-1.497,3.764,3.808c-3.465,5.305-14.653,18.633-9.296,22.73c5.356,4.096,9.127,2.016,20.161-6.269
			c13.567-8.807,16.284-11.602,22.8-14.918c4.28-2.181,5.319-4.667,8.531-4.795c4.495-0.181,4.8,6.143,2.562,11.564
			c-2.239,5.421-10.892,26.387-13.539,32.711c-2.646,6.316-13.331,30.565-18.828,42.793c-5.497,12.225-10.148,20.377-11.602,23.822
			c-2.396,5.693,5.794,0.832,11.389-7.932c4.368-6.84,12.997-20.825,16.578-28.266c3.314-6.894,11.827-24.933,17.326-36.068
			c5.5-11.139,7.835-21.604,15.207-29.33c7.371-7.724,10.746-8.542,13.596-8.955c2.852-0.417,4.479-1.139,1.529,7.561
			c-2.955,8.705-7.858,13.145-13.748,17.821c-5.893,4.67-2.743,9.947,4.484,9.428c7.226-0.525,8.444-6.939,14.861-11.394
			c5.238-3.642,22.978-12.586,29.947-17.055c-5.651,8.699-5.925,14.316-4.903,17.46c1.043,3.213,4.86,4.457,12.494,3.315
			c7.633-1.138,16.08-3.315,30.227-14.816c14.148-11.5,16.796-11.294,20.865-13.573c4.074-2.28,9.47-3.73,7.635-0.312
			c-1.831,3.421-5.191,6.737-9.262,17.096c-4.069,10.366,1.627,13.055,3.156,13.265c1.525,0.206,4.481-1.66,7.837-2.798
			c3.36-1.139,13.233-8.499,19.645-13.366c6.414-4.871,20.255-13.885,23.918-14.401c3.665-0.521,4.378,0.617,3.557,3.625
			c-0.824,3.005-5.695,11.707-8.542,19.271c-2.853,7.561,0.201,6.527,6.816,5.18c6.616-1.346,7.862-3.49,15.98-8.808
			c8.12-5.31,13.437-8.807,17.608-11.5c4.175-2.696,9.829-5.051,11.604-5.179c1.776-0.131,2.138,2.381-1.63,9.945
			c-3.765,7.563-3.969,15.541,1.173,16.889c5.145,1.348,11.753-2.588,21.83-10.88c10.076-8.288,10.484-9.116,10.176-7.147
			c-0.303,1.968-1.727,3.52-3.562,8.702c-1.831,5.183,1.628,8.082,4.802,8.082c3.167,0.004,6.192-1.865,16.371-8.806
			c10.175-6.941,15.268-10.257,19.847-11.087c4.583-0.829,1.221,3.418-0.102,12.33c-1.325,8.912,1.729,8.808,8.548,7.356
			c6.821-1.448,12.726-6.526,17.204-9.324c4.478-2.798,8.347-6.629,8.038-7.564c-0.304-0.931-0.608-0.829-6.201,2.868
			c-5.593,3.695-14.866,8.114-16.677,6.329c-1.813-1.784,0.081-11.372,9.037-23.393c8.953-12.018,19.234-16.266,35.521-36.37
			c16.283-20.1,27.37-34.084,29.507-39.266c2.139-5.182,4.183-7.256,4.376-11.215C765.982,137.949,764.268,134.782,756.433,135.507
			 M457.769,244.789c-1.083-0.62-1.286-0.967-1.083-4.49c0.201-3.526,3.529-7.392,6.513-9.878c2.987-2.487,7.194-5.183,9.434-4.007
			c2.238,1.174,0.542,4.213-5.089,10.292C461.911,242.781,458.315,245.1,457.769,244.789 M754.482,155.945
			c-3.462,6.979-21.288,27.845-26.04,32.821c-4.748,4.972-27.271,28.893-29.848,31.449c4.128-11.387,8.784-18.438,16.48-30.623
			c6.12-9.683,18.594-30.115,28.904-39.164c10.314-9.049,12.333-8.659,14.048-8.359
			C760.719,142.544,757.941,148.969,754.482,155.945"/>
	</g>
	<g>
		<defs>
			<rect id="SVGID_11_" x="-8" y="-10" width="1275.591" height="566.929"/>
		</defs>
		<clipPath id="SVGID_12_">
			<use xlink:href="#SVGID_11_"  overflow="visible"/>
		</clipPath>
		<path clip-path="url(#SVGID_12_)" fill="none" stroke="#FFFFFF" stroke-miterlimit="10" d="M756.433,135.507
			c-7.837,0.725-11.806,5.491-18.22,10.88c-6.413,5.389-17.1,19.169-22.086,26.319c-4.987,7.148-16.286,26.835-19.135,31.811
			c-2.851,4.972-8.959,16.574-11.197,20.097c-2.241,3.526-14.044,12.54-20.152,15.961c-6.105,3.418-12.417,7.977-14.688,8.495
			c-2.269,0.519-3.227-0.311-2.514-3.834c0.714-3.523,3.942-8.219,5.905-13.573c1.962-5.354-3.564-4.973-6.348-5.73
			c-2.783-0.76-2.103-2.871-5.055-5.255c-2.948-2.384-8.144-1.555-10.073,2.073c-1.937,3.628,1.08,5.96,4.066,7.151
			c2.99,1.19,4.889,2.069,3.666,4.765c-1.22,2.694-8.039,10.674-13.539,13.469c-5.493,2.798-8.547,2.902-10.276,0.206
			c-1.729-2.69,0.102-7.043,2.137-11.086c2.036-4.039,10.685-8.185,11.093-11.087c0.41-2.9-1.2-2.845-4.273-3.107
			c-3.074-0.264-9.363,1.45-13.943,3.317c-4.58,1.863-11.299,5.697-16.287,9.01c-4.984,3.32-9.363,5.806-14.758,9.119
			c-5.393,3.319-7.124,4.251-9.069,3.267c-1.944-0.984-1.921-1.604-0.163-5.844c1.76-4.238,1.194-4.675,3.738-9.75
			c2.542-5.077,8.956-14.612,9.463-16.685c0.512-2.071-0.914-2.586-3.663-1.552c-2.748,1.036-10.077,5.389-15.354,8.728
			c-5.284,3.337-14.467,9.299-18.741,12.097s-15.813,10.19-20.866,13.023c-5.055,2.833-7.669,2.175-8.176,1.761
			c-0.509-0.416-0.576-0.794,1.221-6.492c1.799-5.7,5.633-7.875,6.582-8.461c0.949-0.588,1.255-1.659,2.411-3.49
			c1.15-1.832,0.302-2.452-0.717-3.313c-1.017-0.868-3.359-1.325-4.299-2.516c-0.938-1.191-0.315-1.54,0.901-3.069
			c1.217-1.534,1.061-2.879-0.57-4.434c-1.628-1.555-4.375-1.45-7.125,0.725c-2.744,2.175-4.172,6.111-8.649,8.912
			c-4.481,2.795-11.401,7.974-16.185,11.294c-4.786,3.316-10.28,7.147-18.016,10.877c-7.736,3.732-13.943,2.594-14.555,1.554
			c-0.611-1.036-1.732-1.968,4.376-6.009c6.104-4.038,15.37-12.534,17.713-18.441c2.338-5.904,1.424-8.248-0.103-9.908
			c-1.527-1.653-4.578,0-10.894,3.171c-5.8,2.914-14.307,10.679-19.484,17.675c-4.736,1.319-22.013,10.022-25.689,11.76
			c-4.373,2.073-7.325,3.522-5.799,0.827c1.527-2.691,6.017-12.767,7.327-19.166c1.311-6.4-0.203-9.119-7.692-7.081
			c-7.488,2.038-17.247,11.116-20.412,13.354c-3.161,2.24-4.262-0.783-3.552-4.617c0.714-3.831,1.834-6.528-1.219-11.087
			c-3.056-4.556-8.956-2.072-15.389,3.852c-6.428,5.922-12.807,11.125-20.54,15.94c-7.734,4.816-9.13,6.21-13.139,7.494
			c-4.009,1.287-5.154-0.87-2.038-6.888c3.118-6.021,7.267-11.701,7.087-16.822c-0.184-5.124-6.944-4.411-11.017-2.65
			c-4.071,1.762-15.064,10.05-21.016,16.462c-5.947,6.405-9.329,6.792-9.907,7.06c-0.579,0.268-0.696-0.69-0.355-2.108
			c0.335-1.415,4.088-10.42,5.82-15.55c1.731-5.133,0.929-10.63-6.909-6.487c-7.838,4.149-25.161,18.226-27.892,20.223
			c-2.731,1.997-3.659,3.817-4.984,2.678c-1.322-1.141-0.364-2.975,4.577-13.526c4.943-10.554-0.708-9.791-3.354-11.343
			c-2.646-1.555-9.058,1.552-14.321,6.009c-5.262,4.455-25.288,16.362-30.929,19.289c-5.642,2.923-10.956,5.319-18.949,10.012
			c-7.995,4.693-12.127,6.676-13.979,7.349c-1.852,0.675,3.552-4.438,12.569-14.523c14.355-16.051,23.215-28.681,35.685-55.076
			c12.467-26.392,22.424-42.274,27.988-48.044c5.563-5.768,12.691-8.702,14.283-13.399c1.596-4.696-3.898-4.009-8.89-2.591
			c-4.986,1.415-12.041,7.011-14.282,11.949c-2.236,4.94-2.573,4.6-6.886,5.771c-3.188,0.865-11.325,3.377-15.967,4.717
			c-6.221,1.796-16.199,4.903-25.102,7.456c-10.705,3.072-20.684,6.295-25.036,9.151c-4.128,2.71-8.455,6.099-11.911,11.226
			c-3.525,5.223-4.157,11.867-2.122,16.15c2.035,4.28,5.939,8.857,14.031,8.857c8.09,0,11.22-3.436,12.417-5.026
			c1.192-1.589,1.476-3.365-0.05-4.198c-1.529-0.827-3.716,2.076-6.467,2.489c-2.745,0.417-5.343-1.712-6.426-4.364
			c-1.083-2.658-3.394-6.361-0.238-13.355c3.162-6.996,15.268-11.447,22.518-13.73c7.249-2.286,17.279-3.936,25.082-7.357
			c7.799-3.427,14.895-6.111,19.271-7.975c-1.424,1.969-4.579,4.662-8.042,9.637c-3.461,4.973-10.009,14.848-15.703,27.088
			c-5.695,12.24-6.383,16.359-15.679,33.351c-9.297,16.994-27.752,38.338-31.924,41.965c-4.175,3.628-10.688,4.804-20.392,10.226
			c-9.704,5.42-10.702,8.967-10.449,11.5c0.352,3.531,4.682,7.252,15.268,3.593c10.583-3.66,18.931-17.201,21.103-18.787
			c2.172-1.59,39.424-20.657,42.038-22.384c2.611-1.726,14.79-7.525,18.045-9.979c3.258-2.454,10.35-7.115,14.185-6.53
			c3.831,0.588,1.286,4.216,0.302,6.53c-0.98,2.312-6.229,13.719-7.392,17.023c-0.777,2.207-2.553,6.158,0.399,6.914
			c2.951,0.764,13.206-4.148,19.518-11.595c6.315-7.445,17.501-15.14,21.202-15.783c3.696-0.641,2.716,1.368,0.972,5.06
			c-1.741,3.694-9.151,16.928-8.437,20.24c0.713,3.316,5.699,4.457,13.334-0.824c7.631-5.287,13.741-13.783,17.809-17.722
			c4.071-3.936,6.143-5.354,10.281-7.517c4.14-2.157,7.226-1.497,3.764,3.808c-3.465,5.305-14.653,18.633-9.296,22.73
			c5.356,4.096,9.127,2.016,20.161-6.269c13.567-8.807,16.284-11.602,22.8-14.918c4.28-2.181,5.319-4.667,8.531-4.795
			c4.495-0.181,4.8,6.143,2.562,11.564c-2.239,5.421-10.892,26.387-13.539,32.711c-2.646,6.316-13.331,30.565-18.828,42.793
			c-5.497,12.225-10.148,20.377-11.602,23.822c-2.396,5.693,5.794,0.832,11.389-7.932c4.368-6.84,12.997-20.825,16.578-28.266
			c3.314-6.894,11.827-24.933,17.326-36.068c5.5-11.139,7.835-21.604,15.207-29.33c7.371-7.724,10.746-8.542,13.596-8.955
			c2.852-0.417,4.479-1.139,1.529,7.561c-2.955,8.705-7.858,13.145-13.748,17.821c-5.893,4.67-2.743,9.947,4.484,9.428
			c7.226-0.525,8.444-6.939,14.861-11.394c5.238-3.642,22.978-12.586,29.947-17.055c-5.651,8.699-5.925,14.316-4.903,17.46
			c1.043,3.213,4.86,4.457,12.494,3.315c7.633-1.138,16.08-3.315,30.227-14.816c14.148-11.5,16.796-11.294,20.865-13.573
			c4.074-2.28,9.47-3.73,7.635-0.312c-1.831,3.421-5.191,6.737-9.262,17.096c-4.069,10.366,1.627,13.055,3.156,13.265
			c1.525,0.206,4.481-1.66,7.837-2.798c3.36-1.139,13.233-8.499,19.645-13.366c6.414-4.871,20.255-13.885,23.918-14.401
			c3.665-0.521,4.378,0.617,3.557,3.625c-0.824,3.005-5.695,11.707-8.542,19.271c-2.853,7.561,0.201,6.527,6.816,5.18
			c6.616-1.346,7.862-3.49,15.98-8.808c8.12-5.31,13.437-8.807,17.608-11.5c4.175-2.696,9.829-5.051,11.604-5.179
			c1.776-0.131,2.138,2.381-1.63,9.945c-3.765,7.563-3.969,15.541,1.173,16.889c5.145,1.348,11.753-2.588,21.83-10.88
			c10.076-8.288,10.484-9.116,10.176-7.147c-0.303,1.968-1.727,3.52-3.562,8.702c-1.831,5.183,1.628,8.082,4.802,8.082
			c3.167,0.004,6.192-1.865,16.371-8.806c10.175-6.941,15.268-10.257,19.847-11.087c4.583-0.829,1.221,3.418-0.102,12.33
			c-1.325,8.912,1.729,8.808,8.548,7.356c6.821-1.448,12.726-6.526,17.204-9.324c4.478-2.798,8.347-6.629,8.038-7.564
			c-0.304-0.931-0.608-0.829-6.201,2.868c-5.593,3.695-14.866,8.114-16.677,6.329c-1.813-1.784,0.081-11.372,9.037-23.393
			c8.953-12.018,19.234-16.266,35.521-36.37c16.283-20.1,27.37-34.084,29.507-39.266c2.139-5.182,4.183-7.256,4.376-11.215
			C765.982,137.949,764.268,134.782,756.433,135.507z M457.769,244.789c-1.083-0.62-1.286-0.967-1.083-4.49
			c0.201-3.526,3.529-7.392,6.513-9.878c2.987-2.487,7.194-5.183,9.434-4.007c2.238,1.174,0.542,4.213-5.089,10.292
			C461.911,242.781,458.315,245.1,457.769,244.789z M754.482,155.945c-3.462,6.979-21.288,27.845-26.04,32.821
			c-4.748,4.972-27.271,28.893-29.848,31.449c4.128-11.387,8.784-18.438,16.48-30.623c6.12-9.683,18.594-30.115,28.904-39.164
			c10.314-9.049,12.333-8.659,14.048-8.359C760.719,142.544,757.941,148.969,754.482,155.945z"/>
	</g>
	<g>
		<defs>
			<rect id="SVGID_13_" x="-8" y="-10" width="1275.591" height="566.929"/>
		</defs>
		<clipPath id="SVGID_14_">
			<use xlink:href="#SVGID_13_"  overflow="visible"/>
		</clipPath>
		<path clip-path="url(#SVGID_14_)" fill="#FFFFFF" d="M917.558,171.301c0.541-0.882,0.854-1.869,1.333-2.786
			c1.241-2.402,2.72-4.728,3.701-7.209c0.463-1.17,1.115-2.192,1.837-3.182c2.475,0.314,4.548,0.544,5.729,0.612
			c1.572,0.081,3.243,0.203,4.984,0.238c1.778,0.038,3.104-0.078,4.949-0.238c6.144-0.534,11.518-1.459,15.646-2.44
			c3.208-0.853,7.782-1.922,10.053-2.51c2.274-0.582,6.521-2.018,8.458-2.777c3.462-1.357,8.145-2.749,11.585-4.947
			c4.367-2.792,5.948-3.645,9.188-7.459c1.499-1.761,1.496-3.628,1.499-4.641c0.003-1.013-0.354-2.416-0.932-3.459
			c-1.065-1.913-2.789-2.667-4.263-2.777c-2.198-0.169-4.42,0.765-8.339,3.965c-2.646,2.157-3.057,3.066-5.046,5.345
			c-0.929,1.069-2,2.487-2.896,3.599c-1.033,1.292-2.201,2.749-3.396,3.866c-2.094,1.954-10.493,3.424-13.031,3.762
			c-3.049,0.408-6.994,0.457-9.688,0.457c-4.292,0-8.058,0.038-12.321-0.978c-3.372-0.807-6.812-1.345-10.144-2.28
			c-3.331-0.929-19.681-4.189-22.989-5.235c-3.386-1.074-6.874-2.009-10.326-2.792c-2.743-0.623-5.791-1.089-8.761-1.147
			c-6.762-0.128-13.113,1.502-19.504,3.13c-1.688,0.428-4.495,1.217-6.295,1.93c-6.141,2.434-10.195,4.982-14.405,10.118
			c-0.466,0.57-1.409,1.784-1.8,2.39c-2.745,4.297-6.047,9.631-8.862,14.862c-1.243,2.307-2.11,4.848-2.914,7.37
			c-0.597,1.875-1.002,3.927-1.415,5.863c-1.136,5.351-1.933,10.636-1.146,16.176c1.043,7.328,3.33,14.1,7.966,19.888
			c3.813,4.763,9.525,5.869,14.299,1.293c1.406-1.348,2.291-2.763,3.854-4.44c1.563-1.677,0.858-6.688-1.511-3.852
			c-0.973,1.165-3.206,3.517-6.248,4.405c-1.2,0.346-2.246,0.457-3.443,0.251c-1.591-0.268-2.674-1.066-3.913-2.813
			c-0.533-0.748-1.712-2.178-2.195-3.421c-1.587-4.027-2.935-8.111-3.194-12.502c-0.209-3.598-0.958-7.185-0.284-10.81
			c1.008-5.432,2.394-10.74,4.667-15.783c0.629-1.397,1.177-2.862,1.978-4.154c2.438-3.922,4.967-7.757,8.492-10.822
			c2.932-2.55,5.853-4.583,9.782-5.782c2.494-0.763,6.548-2.199,18.524-1.069c2.152,0.183,4.321,0.416,6.408,0.909
			c2.856,0.661,5.593,1.836,8.426,2.623c4.218,1.17,8.414,2.506,12.716,3.173c2.112,0.329,7.311,1.127,12.58,1.881
			c-0.496,0.626-1,1.246-1.479,1.878c-3.446,4.562-6.923,9.11-10.198,13.768c-2.251,3.188-4.376,6.472-6.201,9.867
			c-1.991,3.68-3.727,7.479-5.283,11.317c-2.345,5.767-4.364,11.634-6.656,17.422c-2.116,5.348-4.338,10.658-6.617,15.954
			c-2.364,5.48-4.727,10.971-7.316,16.371c-2.21,4.612-4.554,7.972-7.268,12.358c-2.483,4.008-3.988,6.104-7.985,11.389
			c-3.995,5.287-8.138,9.203-15.062,14.879c-0.722,0.589-3.083,2.127-4.479,2.914c-1.897,1.08-3.803,2.146-5.709,3.207
			c-0.366,0.207-0.763,0.375-1.139,0.57c-0.964,0.508-1.939,0.98-2.932,1.405c-1.325,4.421,1.026,4.618,2.281,4.179
			c4.498-1.529,8.665-3.799,12.684-6.277c3.324-2.049,6.632-4.2,9.678-6.133c3.03-1.926,6.77-4.721,8.723-6.61
			c9.523-9.214,13.127-14.376,17.034-20.601c3.238-5.162,5.184-8.237,7.069-11.699c1.561-2.865,3.156-5.602,5.19-9.217
			c1.643-2.915,2.495-5.739,3.91-8.743c1.292-2.757,2.419-5.576,3.477-8.412c1.03-2.759,1.739-5.61,2.827-8.35
			c2.382-6.017,4.998-11.963,7.362-17.978C911.429,184.018,913.77,177.418,917.558,171.301"/>
	</g>
	<g>
		<defs>
			<rect id="SVGID_15_" x="-8" y="-10" width="1275.591" height="566.929"/>
		</defs>
		<clipPath id="SVGID_16_">
			<use xlink:href="#SVGID_15_"  overflow="visible"/>
		</clipPath>
		<path clip-path="url(#SVGID_16_)" fill="none" stroke="#FFFFFF" stroke-miterlimit="10" d="M917.558,171.301
			c0.541-0.882,0.854-1.869,1.333-2.786c1.241-2.402,2.72-4.728,3.701-7.209c0.463-1.17,1.115-2.192,1.837-3.182
			c2.475,0.314,4.548,0.544,5.729,0.612c1.572,0.081,3.243,0.203,4.984,0.238c1.778,0.038,3.104-0.078,4.949-0.238
			c6.144-0.534,11.518-1.459,15.646-2.44c3.208-0.853,7.782-1.922,10.053-2.51c2.274-0.582,6.521-2.018,8.458-2.777
			c3.462-1.357,8.145-2.749,11.585-4.947c4.367-2.792,5.948-3.645,9.188-7.459c1.499-1.761,1.496-3.628,1.499-4.641
			c0.003-1.013-0.354-2.416-0.932-3.459c-1.065-1.913-2.789-2.667-4.263-2.777c-2.198-0.169-4.42,0.765-8.339,3.965
			c-2.646,2.157-3.057,3.066-5.046,5.345c-0.929,1.069-2,2.487-2.896,3.599c-1.033,1.292-2.201,2.749-3.396,3.866
			c-2.094,1.954-10.493,3.424-13.031,3.762c-3.049,0.408-6.994,0.457-9.688,0.457c-4.292,0-8.058,0.038-12.321-0.978
			c-3.372-0.807-6.812-1.345-10.144-2.28c-3.331-0.929-19.681-4.189-22.989-5.235c-3.386-1.074-6.874-2.009-10.326-2.792
			c-2.743-0.623-5.791-1.089-8.761-1.147c-6.762-0.128-13.113,1.502-19.504,3.13c-1.688,0.428-4.495,1.217-6.295,1.93
			c-6.141,2.434-10.195,4.982-14.405,10.118c-0.466,0.57-1.409,1.784-1.8,2.39c-2.745,4.297-6.047,9.631-8.862,14.862
			c-1.243,2.307-2.11,4.848-2.914,7.37c-0.597,1.875-1.002,3.927-1.415,5.863c-1.136,5.351-1.933,10.636-1.146,16.176
			c1.043,7.328,3.33,14.1,7.966,19.888c3.813,4.763,9.525,5.869,14.299,1.293c1.406-1.348,2.291-2.763,3.854-4.44
			c1.563-1.677,0.858-6.688-1.511-3.852c-0.973,1.165-3.206,3.517-6.248,4.405c-1.2,0.346-2.246,0.457-3.443,0.251
			c-1.591-0.268-2.674-1.066-3.913-2.813c-0.533-0.748-1.712-2.178-2.195-3.421c-1.587-4.027-2.935-8.111-3.194-12.502
			c-0.209-3.598-0.958-7.185-0.284-10.81c1.008-5.432,2.394-10.74,4.667-15.783c0.629-1.397,1.177-2.862,1.978-4.154
			c2.438-3.922,4.967-7.757,8.492-10.822c2.932-2.55,5.853-4.583,9.782-5.782c2.494-0.763,6.548-2.199,18.524-1.069
			c2.152,0.183,4.321,0.416,6.408,0.909c2.856,0.661,5.593,1.836,8.426,2.623c4.218,1.17,8.414,2.506,12.716,3.173
			c2.112,0.329,7.311,1.127,12.58,1.881c-0.496,0.626-1,1.246-1.479,1.878c-3.446,4.562-6.923,9.11-10.198,13.768
			c-2.251,3.188-4.376,6.472-6.201,9.867c-1.991,3.68-3.727,7.479-5.283,11.317c-2.345,5.767-4.364,11.634-6.656,17.422
			c-2.116,5.348-4.338,10.658-6.617,15.954c-2.364,5.48-4.727,10.971-7.316,16.371c-2.21,4.612-4.554,7.972-7.268,12.358
			c-2.483,4.008-3.988,6.104-7.985,11.389c-3.995,5.287-8.138,9.203-15.062,14.879c-0.722,0.589-3.083,2.127-4.479,2.914
			c-1.897,1.08-3.803,2.146-5.709,3.207c-0.366,0.207-0.763,0.375-1.139,0.57c-0.964,0.508-1.939,0.98-2.932,1.405
			c-1.325,4.421,1.026,4.618,2.281,4.179c4.498-1.529,8.665-3.799,12.684-6.277c3.324-2.049,6.632-4.2,9.678-6.133
			c3.03-1.926,6.77-4.721,8.723-6.61c9.523-9.214,13.127-14.376,17.034-20.601c3.238-5.162,5.184-8.237,7.069-11.699
			c1.561-2.865,3.156-5.602,5.19-9.217c1.643-2.915,2.495-5.739,3.91-8.743c1.292-2.757,2.419-5.576,3.477-8.412
			c1.03-2.759,1.739-5.61,2.827-8.35c2.382-6.017,4.998-11.963,7.362-17.978C911.429,184.018,913.77,177.418,917.558,171.301z"/>
	</g>
	<g>
		<defs>
			<rect id="SVGID_17_" x="-8" y="-10" width="1275.591" height="566.929"/>
		</defs>
		<clipPath id="SVGID_18_">
			<use xlink:href="#SVGID_17_"  overflow="visible"/>
		</clipPath>
		<path clip-path="url(#SVGID_18_)" fill="#FFFFFF" d="M1104.916,247.06c-0.334-0.515-1.123-0.618-2.034-0.419
			c-0.005-0.007-0.021-0.034-0.021-0.034c-0.769,0.175-0.439-0.041-8.176,3.689c-7.736,3.733-13.943,2.594-14.556,1.555
			c-0.61-1.037-1.731-1.968,4.377-6.009c6.104-4.038,15.063-12.665,17.713-18.442c2.361-5.147,1.732-8.302-0.143-9.554
			c-1.996-1.332-4.541-0.353-10.854,2.818c-4.454,2.237-10.499,7.336-15.411,12.751c-3.9,2.597-7.72,3.786-10.948,4.57
			c-5.767,1.401-11.784,1.129-17.334-0.514c-2.51-0.752-4.058-1.723-2.878-4.059c3.199-6.362,6.586-13.111,9.853-19.445
			c3.086-5.991,5.046-10.016,8.157-15.995c0.769-1.467,2.898-5.55,3.713-6.988c1.72-3.029,2.69-5.073,4.373-8.119
			c2.634-4.775,4.854-9.29,7.423-14.108c2.745-5.159,4.204-8.221,6.938-13.397c0.769-1.458,2.8-5.747,3.359-7.301
			c1.129-3.059,2.812-6.163,4.413-9.412c0.512-1.034,0.787-1.583,0.598-2.629c-0.489-2.698-5.944-3.997-7.686-2.001
			c-3.391,3.879-3.414,5.286-6.521,9.42c-1.724,2.287-3.306,5.532-4.855,7.949c-0.788,1.24-2.707,3.899-3.338,5.227
			c-0.544,1.153-2.93,4.886-3.587,5.96c-5.365,8.819-9.272,14.413-14.709,23.193c-2.986,4.829-5.846,9.76-9.155,14.349
			c-3.853,5.331-8.114,10.354-12.222,15.484c-2.341,2.927-5.536,6.709-8.049,9.432c-2.223-1.68-3.319-3.039-4.733-4.662
			c-0.963-1.1-2.339,0.543-3.119,1.94c-1.161,2.086-0.144,5.068,1.787,7.633c0.338,0.451,0.106,0.902-0.47,1.532
			c-1.734,1.355-6.28,4.916-7.09,5.544c-2.336,1.811-3.234,2.527-4.697,3.456c-3.51,2.238-6.79,4.46-10.41,6.489
			c-1.738,0.978-3.599,1.951-5.367,2.612c-1.246,0.465-5.143,2.591-5.294,0.305c-0.648-6.914,3.048-11.182,7.562-14.26
			c0.632-0.431,1.208-0.964,1.771-1.488c2.723-2.527,2.892-4.53,0.45-6.545c-0.65-0.541-1.536-0.82-2.343-1.126
			c-2.306-0.877-2.46-1.771-0.554-3.416c1.537-1.327,1.183-4.579-0.601-5.429c-2.022-0.964-5.293-0.565-6.83,1.08
			c-1.605,1.706-3.026,3.593-4.526,5.401c-0.317,0.381-0.557,0.867-0.946,1.144c-2.983,2.128-4.818,3.499-7.849,5.575
			c-1.262,0.868-3.722,2.67-4.661,3.319c-3.763,2.612-7.015,4.405-11.138,5.18c-2.128,0.39-3.267-0.422-4.422-1.808
			c0.688-1.529,1.393-2.976,1.978-4.464c1.161-2.928,1.377-5.895-0.432-8.611c-1.34-2.013-2.407-4.382-5.337-4.728
			c-4.16-0.493-7.628,0.948-10.279,3.985c-1.472,1.692-3.031,2.161-4.893,1.729c-2.789-0.643-5.471-0.349-8.064,0.37
			c-2.814,0.949-4.976,2.408-6.304,3.756c-1.327,1.354-2.955,3.569-4.191,6.204c-1.397,2.979-3.547,8.286-4.68,12.554
			c-1.057,3.992-0.926,7.532,2.931,10.711c2.794,2.303,5.145,2.789,8.391,3.119c1.438,0.142,4.648-1.227,6.48-2.373
			c4.494-2.815,7.065-4.772,9.164-6.711c2.104-1.939,4.683-4.332,7.429-6.906c1.013-0.949,1.429-2.108,3.758-1.01
			c1.515,0.713,3.397,0.854,4.987,0.579c5.19-0.885,9.406-3.971,13.619-6.943c2.555-1.8,5.506-4.021,7.744-5.769
			c2.711-2.107,6.076-3.676,7.976-2.59c0.391,0.221,1.982,1.304,2.113,1.837c0.184,0.725,0.018,1.706-0.338,2.402
			c-1.018,1.959-2.047,3.939-3.354,5.691c-2.689,3.617-4.345,7.687-5.559,11.987c-0.607,2.151-0.692,4.255,0.483,6.286
			c1.424,2.466,3.168,3.101,5.806,2.263c3.941-1.252,8.783-3.769,12.72-6.373c0.237-0.158,0.449-0.308,0.68-0.463l-0.006,0.012
			c0.04-0.031,0.074-0.055,0.115-0.086c2.519-1.706,4.613-3.272,6.671-4.875c2.462-1.768,4.866-3.55,7.604-5.974
			c0.002-0.002,0.006-0.005,0.008-0.007c1.311-1.056,3.814-3.111,4.477-3.656c0.137-0.113,0.27-0.226,0.401-0.34l0.017-0.011
			c2.782-2.231,5.097-3.947,7.93-6.644c2.773,2.608,5.627,4.262,8.881,6.427c0.563,0.372,0.81,1.832-0.318,3.811
			c-0.766,1.34-2.685,4.571-3.576,6.163c-1.425,2.545-3.009,5.269-3.459,7.786c-0.6,3.341,2.312,4.977,3.366,5.199
			c4.543,0.972,6.699-0.604,7.389-2.236c1.198-2.845,2.768-5.613,3.807-8.535c0.655-1.852,2.305-5.192,3.219-7.428
			c3.223,1.202,10.837,0.903,14.146,0.697c6.036-0.374,14.704-3.606,17.782-5.213c-0.35,0.493-0.736,1.07-1.059,1.584
			c-5.649,8.699-5.925,14.315-4.901,17.459c1.042,3.215,4.858,4.457,12.492,3.316c6.717-1.002,14.061-2.808,25.364-11.06
			c0.011-0.008,0.013-0.019,0.023-0.026C1104.63,249.385,1105.454,247.895,1104.916,247.06 M939.146,242.811
			c-3.101,3.055-5.894,6.307-9.174,8.135c-0.804,0.448-2.854,1.493-4.451,1.424c-1.782-0.032-3.628-0.032-5.024-0.812
			c-0.899-0.501-1.321-3.224-1.168-4.845c0.567-5.715,2.895-10.321,6.927-14.069c1.405-1.307,2.995-2.914,4.491-4
			c1.246-0.902,2.69-0.844,3.206,0.635c0.2,0.562,0.423,1.182,0.416,1.767c-0.062,2.938-0.188,4.292,1.143,6.819
			c0.998,1.898,2.86,2.78,4.329,3.729C940.017,241.71,939.276,242.686,939.146,242.811 M1034.522,232.126
			c-3.314-1.478-6.113-2.861-8.729-5.173c1.646-1.837,4.111-4.623,5.566-6.303c3.504-4.028,6.663-7.964,10.174-11.975
			c1.257-1.43,3.15-3.857,4.385-5.303c1.343-1.571,5.118-7.439,8.278-9.096C1049.101,203.149,1039.527,222.07,1034.522,232.126
			 M1078.975,245.498c-1.083-0.62-1.287-0.967-1.083-4.489c0.201-3.526,3.529-7.392,6.513-9.879
			c2.987-2.486,7.194-5.182,9.434-4.006c2.239,1.173,0.541,4.213-5.09,10.292C1083.117,243.492,1079.522,245.81,1078.975,245.498"/>
	</g>
	<g>
		<defs>
			<rect id="SVGID_19_" x="-8" y="-10" width="1275.591" height="566.929"/>
		</defs>
		<clipPath id="SVGID_20_">
			<use xlink:href="#SVGID_19_"  overflow="visible"/>
		</clipPath>
		<path clip-path="url(#SVGID_20_)" fill="none" stroke="#FFFFFF" stroke-miterlimit="10" d="M1104.916,247.06
			c-0.334-0.515-1.123-0.618-2.034-0.419c-0.005-0.007-0.021-0.034-0.021-0.034c-0.769,0.175-0.439-0.041-8.176,3.689
			c-7.736,3.733-13.943,2.594-14.556,1.555c-0.61-1.037-1.731-1.968,4.377-6.009c6.104-4.038,15.063-12.665,17.713-18.442
			c2.361-5.147,1.732-8.302-0.143-9.554c-1.996-1.332-4.541-0.353-10.854,2.818c-4.454,2.237-10.499,7.336-15.411,12.751
			c-3.9,2.597-7.72,3.786-10.948,4.57c-5.767,1.401-11.784,1.129-17.334-0.514c-2.51-0.752-4.058-1.723-2.878-4.059
			c3.199-6.362,6.586-13.111,9.853-19.445c3.086-5.991,5.046-10.016,8.157-15.995c0.769-1.467,2.898-5.55,3.713-6.988
			c1.72-3.029,2.69-5.073,4.373-8.119c2.634-4.775,4.854-9.29,7.423-14.108c2.745-5.159,4.204-8.221,6.938-13.397
			c0.769-1.458,2.8-5.747,3.359-7.301c1.129-3.059,2.812-6.163,4.413-9.412c0.512-1.034,0.787-1.583,0.598-2.629
			c-0.489-2.698-5.944-3.997-7.686-2.001c-3.391,3.879-3.414,5.286-6.521,9.42c-1.724,2.287-3.306,5.532-4.855,7.949
			c-0.788,1.24-2.707,3.899-3.338,5.227c-0.544,1.153-2.93,4.886-3.587,5.96c-5.365,8.819-9.272,14.413-14.709,23.193
			c-2.986,4.829-5.846,9.76-9.155,14.349c-3.853,5.331-8.114,10.354-12.222,15.484c-2.341,2.927-5.536,6.709-8.049,9.432
			c-2.223-1.68-3.319-3.039-4.733-4.662c-0.963-1.1-2.339,0.543-3.119,1.94c-1.161,2.086-0.144,5.068,1.787,7.633
			c0.338,0.451,0.106,0.902-0.47,1.532c-1.734,1.355-6.28,4.916-7.09,5.544c-2.336,1.811-3.234,2.527-4.697,3.456
			c-3.51,2.238-6.79,4.46-10.41,6.489c-1.738,0.978-3.599,1.951-5.367,2.612c-1.246,0.465-5.143,2.591-5.294,0.305
			c-0.648-6.914,3.048-11.182,7.562-14.26c0.632-0.431,1.208-0.964,1.771-1.488c2.723-2.527,2.892-4.53,0.45-6.545
			c-0.65-0.541-1.536-0.82-2.343-1.126c-2.306-0.877-2.46-1.771-0.554-3.416c1.537-1.327,1.183-4.579-0.601-5.429
			c-2.022-0.964-5.293-0.565-6.83,1.08c-1.605,1.706-3.026,3.593-4.526,5.401c-0.317,0.381-0.557,0.867-0.946,1.144
			c-2.983,2.128-4.818,3.499-7.849,5.575c-1.262,0.868-3.722,2.67-4.661,3.319c-3.763,2.612-7.015,4.405-11.138,5.18
			c-2.128,0.39-3.267-0.422-4.422-1.808c0.688-1.529,1.393-2.976,1.978-4.464c1.161-2.928,1.377-5.895-0.432-8.611
			c-1.34-2.013-2.407-4.382-5.337-4.728c-4.16-0.493-7.628,0.948-10.279,3.985c-1.472,1.692-3.031,2.161-4.893,1.729
			c-2.789-0.643-5.471-0.349-8.064,0.37c-2.814,0.949-4.976,2.408-6.304,3.756c-1.327,1.354-2.955,3.569-4.191,6.204
			c-1.397,2.979-3.547,8.286-4.68,12.554c-1.057,3.992-0.926,7.532,2.931,10.711c2.794,2.303,5.145,2.789,8.391,3.119
			c1.438,0.142,4.648-1.227,6.48-2.373c4.494-2.815,7.065-4.772,9.164-6.711c2.104-1.939,4.683-4.332,7.429-6.906
			c1.013-0.949,1.429-2.108,3.758-1.01c1.515,0.713,3.397,0.854,4.987,0.579c5.19-0.885,9.406-3.971,13.619-6.943
			c2.555-1.8,5.506-4.021,7.744-5.769c2.711-2.107,6.076-3.676,7.976-2.59c0.391,0.221,1.982,1.304,2.113,1.837
			c0.184,0.725,0.018,1.706-0.338,2.402c-1.018,1.959-2.047,3.939-3.354,5.691c-2.689,3.617-4.345,7.687-5.559,11.987
			c-0.607,2.151-0.692,4.255,0.483,6.286c1.424,2.466,3.168,3.101,5.806,2.263c3.941-1.252,8.783-3.769,12.72-6.373
			c0.237-0.158,0.449-0.308,0.68-0.463l-0.006,0.012c0.04-0.031,0.074-0.055,0.115-0.086c2.519-1.706,4.613-3.272,6.671-4.875
			c2.462-1.768,4.866-3.55,7.604-5.974c0.002-0.002,0.006-0.005,0.008-0.007c1.311-1.056,3.814-3.111,4.477-3.656
			c0.137-0.113,0.27-0.226,0.401-0.34l0.017-0.011c2.782-2.231,5.097-3.947,7.93-6.644c2.773,2.608,5.627,4.262,8.881,6.427
			c0.563,0.372,0.81,1.832-0.318,3.811c-0.766,1.34-2.685,4.571-3.576,6.163c-1.425,2.545-3.009,5.269-3.459,7.786
			c-0.6,3.341,2.312,4.977,3.366,5.199c4.543,0.972,6.699-0.604,7.389-2.236c1.198-2.845,2.768-5.613,3.807-8.535
			c0.655-1.852,2.305-5.192,3.219-7.428c3.223,1.202,10.837,0.903,14.146,0.697c6.036-0.374,14.704-3.606,17.782-5.213
			c-0.35,0.493-0.736,1.07-1.059,1.584c-5.649,8.699-5.925,14.315-4.901,17.459c1.042,3.215,4.858,4.457,12.492,3.316
			c6.717-1.002,14.061-2.808,25.364-11.06c0.011-0.008,0.013-0.019,0.023-0.026C1104.63,249.385,1105.454,247.895,1104.916,247.06z
			 M939.146,242.811c-3.101,3.055-5.894,6.307-9.174,8.135c-0.804,0.448-2.854,1.493-4.451,1.424
			c-1.782-0.032-3.628-0.032-5.024-0.812c-0.899-0.501-1.321-3.224-1.168-4.845c0.567-5.715,2.895-10.321,6.927-14.069
			c1.405-1.307,2.995-2.914,4.491-4c1.246-0.902,2.69-0.844,3.206,0.635c0.2,0.562,0.423,1.182,0.416,1.767
			c-0.062,2.938-0.188,4.292,1.143,6.819c0.998,1.898,2.86,2.78,4.329,3.729C940.017,241.71,939.276,242.686,939.146,242.811z
			 M1034.522,232.126c-3.314-1.478-6.113-2.861-8.729-5.173c1.646-1.837,4.111-4.623,5.566-6.303
			c3.504-4.028,6.663-7.964,10.174-11.975c1.257-1.43,3.15-3.857,4.385-5.303c1.343-1.571,5.118-7.439,8.278-9.096
			C1049.101,203.149,1039.527,222.07,1034.522,232.126z M1078.975,245.498c-1.083-0.62-1.287-0.967-1.083-4.489
			c0.201-3.526,3.529-7.392,6.513-9.879c2.987-2.486,7.194-5.182,9.434-4.006c2.239,1.173,0.541,4.213-5.09,10.292
			C1083.117,243.492,1079.522,245.81,1078.975,245.498z"/>
	</g>
</g>
</svg>
